<svg width="329" height="157" viewBox="0 0 329 157" fill="none" xmlns="http://www.w3.org/2000/svg">
<path d="M70.8531 36.6362C56.9374 36.6362 45.6094 48.0671 45.6094 62.1131C45.6094 76.1592 56.9356 87.59 70.8531 87.59C84.7706 87.59 96.0968 76.1592 96.0968 62.1131C96.0968 48.0671 84.7706 36.6362 70.8531 36.6362ZM70.8531 81.0557C60.4972 81.0557 52.082 72.5628 52.082 62.1113C52.082 51.6597 60.4972 43.1668 70.8531 43.1668C81.209 43.1668 89.6242 51.6597 89.6242 62.1113C89.6242 72.5628 81.209 81.0557 70.8531 81.0557Z" fill="black"/>
<path d="M121.47 116.839C111.657 104.688 94.9195 90.2002 70.8549 90.2002C46.7904 90.2002 30.0524 104.688 20.2399 116.839C17.7928 119.87 17.3141 123.972 18.985 127.513C20.6687 131.092 24.1509 133.314 28.06 133.314H113.654C117.563 133.314 121.045 131.092 122.729 127.513C124.398 123.972 123.919 119.87 121.474 116.839H121.47ZM116.886 124.717C116.278 126.011 115.06 126.782 113.65 126.782H28.0563C26.6461 126.782 25.4281 126.011 24.82 124.717C24.2248 123.437 24.393 122.038 25.2599 120.967C34.1796 109.915 49.3244 96.7326 70.8531 96.7326C92.3818 96.7326 107.527 109.915 116.446 120.967C117.313 122.04 117.481 123.437 116.886 124.717Z" fill="black"/>
<path d="M202.853 36.6362C188.937 36.6362 177.609 48.0671 177.609 62.1131C177.609 76.1592 188.936 87.59 202.853 87.59C216.771 87.59 228.097 76.1592 228.097 62.1131C228.097 48.0671 216.771 36.6362 202.853 36.6362ZM202.853 81.0557C192.497 81.0557 184.082 72.5628 184.082 62.1113C184.082 51.6597 192.497 43.1668 202.853 43.1668C213.209 43.1668 221.624 51.6597 221.624 62.1113C221.624 72.5628 213.209 81.0557 202.853 81.0557Z" fill="black"/>
<path d="M253.47 116.839C243.657 104.688 226.919 90.2002 202.855 90.2002C178.79 90.2002 162.052 104.688 152.24 116.839C149.793 119.87 149.314 123.972 150.985 127.513C152.669 131.092 156.151 133.314 160.06 133.314H245.654C249.563 133.314 253.045 131.092 254.729 127.513C256.398 123.972 255.919 119.87 253.474 116.839H253.47ZM248.886 124.717C248.278 126.011 247.06 126.782 245.65 126.782H160.056C158.646 126.782 157.428 126.011 156.82 124.717C156.225 123.437 156.393 122.038 157.26 120.967C166.18 109.915 181.324 96.7326 202.853 96.7326C224.382 96.7326 239.527 109.915 248.446 120.967C249.313 122.04 249.481 123.437 248.886 124.717Z" fill="black"/>
<path d="M129.681 19C118.393 19 109.215 28.2633 109.215 39.655C109.215 51.0466 118.393 60.31 129.681 60.31C140.968 60.31 150.147 51.0466 150.147 39.655C150.147 28.2633 140.968 19 129.681 19ZM129.681 55.0198C121.293 55.0198 114.457 48.1218 114.457 39.6568C114.457 31.1919 121.291 24.292 129.681 24.292C138.07 24.292 144.905 31.19 144.905 39.6568C144.905 48.1237 138.07 55.0198 129.681 55.0198Z" fill="black"/>
<path d="M170.719 84.0354C162.771 74.1715 149.205 62.4272 129.683 62.4272C121.244 62.4272 113.916 64.6209 107.676 67.9132V74.0148C113.773 70.3046 121.1 67.7304 129.683 67.7304C147.133 67.7304 159.418 78.417 166.654 87.3669C167.353 88.2418 167.482 89.3796 167.004 90.4112C166.512 91.4688 165.529 92.0974 164.375 92.0974H107.676V97.3876H164.375C167.56 97.3876 170.382 95.5856 171.741 92.685C173.099 89.8105 172.698 86.4921 170.719 84.0354Z" fill="black"/>
<path d="M261.681 19C250.393 19 241.215 28.2633 241.215 39.655C241.215 51.0466 250.393 60.31 261.681 60.31C272.968 60.31 282.147 51.0466 282.147 39.655C282.147 28.2633 272.968 19 261.681 19ZM261.681 55.0198C253.293 55.0198 246.457 48.1218 246.457 39.6568C246.457 31.1919 253.291 24.292 261.681 24.292C270.07 24.292 276.905 31.19 276.905 39.6568C276.905 48.1237 270.07 55.0198 261.681 55.0198Z" fill="black"/>
<path d="M302.719 84.0354C294.771 74.1715 281.205 62.4272 261.683 62.4272C253.244 62.4272 245.916 64.6209 239.676 67.9132V74.0148C245.773 70.3046 253.1 67.7304 261.683 67.7304C279.133 67.7304 291.418 78.417 298.654 87.3669C299.353 88.2418 299.482 89.3796 299.004 90.4112C298.512 91.4688 297.529 92.0974 296.375 92.0974H239.676V97.3876H296.375C299.56 97.3876 302.382 95.5856 303.741 92.685C305.099 89.8105 304.698 86.4921 302.719 84.0354Z" fill="black"/>
</svg>
