<svg width="31" height="20" viewBox="0 0 31 20" fill="none" xmlns="http://www.w3.org/2000/svg">
<path d="M15.6166 7.26538C11.9516 7.26538 8.78088 9.45338 7.32449 12.6052C7.16425 12.9472 7.02624 13.3026 6.91113 13.6673L7.95677 14.1096C8.06737 13.7451 8.20503 13.3872 8.3656 13.0452C9.65271 10.3037 12.4191 8.40494 15.6166 8.40494C18.814 8.40494 21.5714 10.2965 22.8585 13.0292C23.021 13.3712 23.1587 13.7266 23.2719 14.0913L24.3198 13.6582C24.2024 13.2938 24.0644 12.9381 23.9042 12.5961C22.4455 9.44883 19.2793 7.26538 15.6166 7.26538Z" fill="black"/>
<path d="M17.8207 15.1125C17.3623 14.3696 16.5449 13.875 15.6166 13.875C14.6884 13.875 13.8327 14.3947 13.381 15.1649C13.1891 15.4906 13.0669 15.86 13.0308 16.2543C13.0241 16.3341 13.0195 16.4138 13.0195 16.4958C13.0195 17.9406 14.1848 19.1166 15.6163 19.1166C17.0479 19.1166 18.2131 17.9406 18.2131 16.4958C18.2131 16.391 18.2064 16.2885 18.1951 16.188C18.15 15.7962 18.0191 15.4314 17.8201 15.1122L17.8207 15.1125ZM15.6166 17.977C14.8896 17.977 14.2844 17.4391 14.1693 16.7372C14.1558 16.6598 14.149 16.5778 14.149 16.4958C14.149 16.1652 14.2573 15.86 14.4405 15.6136C14.7068 15.2511 15.1359 15.0142 15.617 15.0142C16.0732 15.0142 16.4795 15.2238 16.7506 15.5544C16.9583 15.8098 17.085 16.1378 17.085 16.4958C17.085 16.5482 17.0827 16.6006 17.0782 16.6507C16.9992 17.3936 16.376 17.977 15.6173 17.977H15.6166Z" fill="black"/>
<path d="M30.1779 10.005C27.7053 4.36876 22.1093 0.428467 15.617 0.428467C9.12463 0.428467 3.558 4.35086 1.07404 9.96177C0.918313 10.3083 0.778384 10.6637 0.649414 11.0216L1.69279 11.4615C1.81918 11.1013 1.96168 10.7483 2.11515 10.404C4.42757 5.20081 9.6102 1.56802 15.617 1.56802C21.6237 1.56802 26.8267 5.21448 29.1323 10.4359C29.2858 10.7824 29.428 11.1355 29.5525 11.4957H29.5547L30.5981 11.0626C30.4717 10.7047 30.3317 10.3516 30.1779 10.005Z" fill="black"/>
</svg>
