<svg width="54" height="31" viewBox="0 0 54 31" fill="none" xmlns="http://www.w3.org/2000/svg">
<path d="M26.9109 5.26807C23.2337 5.26807 20.2402 8.28866 20.2402 12.0003C20.2402 15.712 23.2332 18.7326 26.9109 18.7326C30.5886 18.7326 33.5815 15.712 33.5815 12.0003C33.5815 8.28866 30.5886 5.26807 26.9109 5.26807ZM26.9109 17.0059C24.1743 17.0059 21.9506 14.7616 21.9506 11.9998C21.9506 9.23802 24.1743 6.99377 26.9109 6.99377C29.6474 6.99377 31.8711 9.23802 31.8711 11.9998C31.8711 14.7616 29.6474 17.0059 26.9109 17.0059Z" fill="black"/>
<path d="M40.2862 26.4617C37.6933 23.2508 33.2703 19.4224 26.9112 19.4224C20.5522 19.4224 16.1292 23.2508 13.5362 26.4617C12.8896 27.2627 12.7631 28.3466 13.2046 29.2822C13.6495 30.2281 14.5697 30.8151 15.6027 30.8151H38.2207C39.2537 30.8151 40.1739 30.2281 40.6188 29.2822C41.0599 28.3466 40.9334 27.2627 40.2872 26.4617H40.2862ZM39.075 28.5433C38.9143 28.8854 38.5924 29.089 38.2198 29.089H15.6017C15.2291 29.089 14.9072 28.8854 14.7465 28.5433C14.5892 28.2052 14.6337 27.8355 14.8628 27.5525C17.2198 24.632 21.2218 21.1486 26.9107 21.1486C32.5997 21.1486 36.6017 24.632 38.9587 27.5525C39.1878 27.836 39.2322 28.2052 39.075 28.5433Z" fill="black"/>
<path d="M42.4569 0.607422C39.4742 0.607422 37.0488 3.05525 37.0488 6.06549C37.0488 9.07573 39.4742 11.5236 42.4569 11.5236C45.4396 11.5236 47.8651 9.07573 47.8651 6.06549C47.8651 3.05525 45.4396 0.607422 42.4569 0.607422ZM42.4569 10.1256C40.2406 10.1256 38.4339 8.30284 38.4339 6.06598C38.4339 3.82913 40.2401 2.00583 42.4569 2.00583C44.6738 2.00583 46.4799 3.82863 46.4799 6.06598C46.4799 8.30333 44.6738 10.1256 42.4569 10.1256Z" fill="black"/>
<path d="M53.3016 17.793C51.2015 15.1864 47.6166 12.083 42.458 12.083C40.228 12.083 38.2914 12.6627 36.6426 13.5327V15.145C38.2538 14.1646 40.1899 13.4844 42.458 13.4844C47.0691 13.4844 50.3155 16.3083 52.2276 18.6733C52.4122 18.9045 52.4464 19.2052 52.3199 19.4777C52.19 19.7572 51.9302 19.9233 51.6254 19.9233H36.6426V21.3213H51.6254C52.4669 21.3213 53.2127 20.8451 53.5717 20.0786C53.9307 19.319 53.8247 18.4421 53.3016 17.793Z" fill="black"/>
<path d="M11.3671 0.607422C14.3498 0.607422 16.7752 3.05525 16.7752 6.06549C16.7752 9.07573 14.3498 11.5236 11.3671 11.5236C8.3844 11.5236 5.95898 9.07573 5.95898 6.06549C5.95898 3.05525 8.3844 0.607422 11.3671 0.607422ZM11.3671 10.1256C13.5835 10.1256 15.3901 8.30284 15.3901 6.06598C15.3901 3.82913 13.584 2.00583 11.3671 2.00583C9.15022 2.00583 7.3441 3.82863 7.3441 6.06598C7.3441 8.30333 9.15022 10.1256 11.3671 10.1256Z" fill="black"/>
<path d="M0.522784 17.793C2.62293 15.1864 6.20782 12.083 11.3664 12.083C13.5964 12.083 15.5329 12.6627 17.1818 13.5327V15.145C15.5706 14.1646 13.6345 13.4844 11.3664 13.4844C6.75533 13.4844 3.50889 16.3083 1.59679 18.6733C1.41217 18.9045 1.37798 19.2052 1.50448 19.4777C1.63439 19.7572 1.89422 19.9233 2.19899 19.9233H17.1818V21.3213H2.19899C1.35747 21.3213 0.611673 20.8451 0.252695 20.0786C-0.106283 19.319 -0.000297908 18.4421 0.522784 17.793Z" fill="black"/>
</svg>
