<svg width="36" height="14" viewBox="0 0 36 14" fill="none" xmlns="http://www.w3.org/2000/svg">
<path d="M28.0009 0C26.0318 0 24.4307 1.61595 24.4307 3.60317C24.4307 5.5904 26.0318 7.20635 28.0009 7.20635C29.9699 7.20635 31.5711 5.5904 31.5711 3.60317C31.5711 1.61595 29.9699 0 28.0009 0ZM28.0009 6.28351C26.5377 6.28351 25.3451 5.08017 25.3451 3.6035C25.3451 2.12683 26.5374 0.923165 28.0009 0.923165C29.4643 0.923165 30.6567 2.1265 30.6567 3.6035C30.6567 5.0805 29.4643 6.28351 28.0009 6.28351Z" fill="black"/>
<path d="M35.1597 11.3451C33.7732 9.62441 31.4067 7.57568 28.0012 7.57568C26.529 7.57568 25.2506 7.95836 24.1621 8.53269V9.59708C25.2258 8.94986 26.5039 8.5008 28.0012 8.5008C31.0452 8.5008 33.1884 10.365 34.4507 11.9263C34.5725 12.0789 34.5951 12.2774 34.5116 12.4574C34.4258 12.6419 34.2543 12.7515 34.0531 12.7515H24.1621V13.6744H34.0531C34.6086 13.6744 35.101 13.36 35.338 12.854C35.5749 12.3526 35.505 11.7737 35.1597 11.3451Z" fill="black"/>
<path d="M7.47645 0C9.44549 0 11.0466 1.61595 11.0466 3.60317C11.0466 5.5904 9.44549 7.20635 7.47645 7.20635C5.50741 7.20635 3.90625 5.5904 3.90625 3.60317C3.90625 1.61595 5.50741 0 7.47645 0ZM7.47645 6.28351C8.93961 6.28351 10.1323 5.08017 10.1323 3.6035C10.1323 2.12683 8.93993 0.923165 7.47645 0.923165C6.01297 0.923165 4.82064 2.1265 4.82064 3.6035C4.82064 5.0805 6.01297 6.28351 7.47645 6.28351Z" fill="black"/>
<path d="M0.317398 11.3451C1.70382 9.62441 4.07041 7.57568 7.47585 7.57568C8.94804 7.57568 10.2264 7.95836 11.3149 8.53269V9.59708C10.2513 8.94986 8.97319 8.5008 7.47585 8.5008C4.43185 8.5008 2.2887 10.365 1.02641 11.9263C0.904531 12.0789 0.881961 12.2774 0.965469 12.4574C1.05123 12.6419 1.22276 12.7515 1.42395 12.7515H11.3149V13.6744H1.42395C0.868418 13.6744 0.376078 13.36 0.139096 12.854C-0.097885 12.3526 -0.0279181 11.7737 0.317398 11.3451Z" fill="black"/>
</svg>
