<svg width="27" height="17" viewBox="0 0 27 17" fill="none" xmlns="http://www.w3.org/2000/svg">
<path d="M5.3762 2.17385C5.3762 1.73489 5.77665 1.37759 6.26899 1.37759H20.2905C20.7829 1.37759 21.1833 1.73489 21.1833 2.17385V5.66672H22.3125V2.17385C22.3125 1.10654 21.4055 0.238037 20.2905 0.238037H6.26899C5.15405 0.238037 4.24707 1.10654 4.24707 2.17385V5.66672H5.3762V2.17385Z" fill="black"/>
<path d="M24.6423 6.27734H22.9173C21.961 6.27734 21.183 7.06254 21.183 8.02768V8.46144C20.9789 8.37586 20.7555 8.32835 20.5211 8.32835H6.03717C5.80277 8.32835 5.57934 8.37586 5.37524 8.46144V8.02768C5.37524 7.06254 4.59723 6.27734 3.64093 6.27734H1.91596C0.95965 6.27734 0.181641 7.06254 0.181641 8.02768V15.2383C0.181641 16.2034 0.95965 16.9886 1.91596 16.9886H3.64093C4.44312 16.9886 5.11763 16.4357 5.31528 15.6883C5.53549 15.7905 5.77956 15.8494 6.03717 15.8494H20.5211C20.779 15.8494 21.0231 15.7908 21.243 15.6883C21.4407 16.4357 22.1152 16.9886 22.9173 16.9886H24.6423C25.5986 16.9886 26.3766 16.2034 26.3766 15.2383V8.02768C26.3766 7.06254 25.5986 6.27734 24.6423 6.27734ZM4.24612 15.2386C4.24612 15.5757 3.97463 15.8494 3.64093 15.8494H1.91596C1.58225 15.8494 1.31077 15.5754 1.31077 15.2386V8.02801C1.31077 7.69089 1.58225 7.41723 1.91596 7.41723H3.64093C3.97463 7.41723 4.24612 7.69121 4.24612 8.02801V15.2386ZM21.1263 14.099C21.1263 14.4361 20.8548 14.7098 20.5211 14.7098H6.03717C5.70346 14.7098 5.43198 14.4358 5.43198 14.099V10.079C5.43198 9.7419 5.70346 9.46823 6.03717 9.46823H20.5211C20.8548 9.46823 21.1263 9.74222 21.1263 10.079V14.099ZM25.2475 15.2386C25.2475 15.5757 24.976 15.8494 24.6423 15.8494H22.9173C22.5836 15.8494 22.3122 15.5754 22.3122 15.2386V8.02801C22.3122 7.69089 22.5836 7.41723 22.9173 7.41723H24.6423C24.976 7.41723 25.2475 7.69121 25.2475 8.02801V15.2386Z" fill="black"/>
</svg>
