<svg width="19" height="20" viewBox="0 0 19 20" fill="none" xmlns="http://www.w3.org/2000/svg">
<path d="M0.790142 7.19476C0.478359 7.19476 0.225586 6.93965 0.225586 6.62499V0.699417C0.225586 0.384754 0.478359 0.129639 0.790142 0.129639H6.4358C6.74758 0.129639 7.00036 0.384754 7.00036 0.699417C7.00036 1.01408 6.74758 1.2692 6.4358 1.2692H1.35473V6.62499C1.35473 6.93965 1.10193 7.19476 0.790142 7.19476Z" fill="black"/>
<path d="M18.0658 7.08075C17.754 7.08075 17.5012 6.82564 17.5012 6.51097V1.38297H12.1944C11.8827 1.38297 11.6299 1.12785 11.6299 0.813187C11.6299 0.498523 11.8827 0.243408 12.1944 0.243408H18.0658C18.3776 0.243408 18.6304 0.498523 18.6304 0.813187V6.51097C18.6304 6.82564 18.3776 7.08075 18.0658 7.08075Z" fill="black"/>
<path d="M18.0657 19.0458H12.42C12.1082 19.0458 11.8555 18.7907 11.8555 18.4761C11.8555 18.1614 12.1082 17.9063 12.42 17.9063H17.5011V12.5505C17.5011 12.2358 17.7539 11.9807 18.0657 11.9807C18.3775 11.9807 18.6302 12.2358 18.6302 12.5505V18.4761C18.6302 18.7907 18.3775 19.0458 18.0657 19.0458Z" fill="black"/>
<path d="M6.6615 18.9318H0.790142C0.478359 18.9318 0.225586 18.6767 0.225586 18.362V12.6643C0.225586 12.3496 0.478359 12.0945 0.790142 12.0945C1.10193 12.0945 1.35473 12.3496 1.35473 12.6643V17.7923H6.6615C6.97328 17.7923 7.22605 18.0474 7.22605 18.362C7.22605 18.6767 6.97328 18.9318 6.6615 18.9318Z" fill="black"/>
</svg>
