<svg width="27" height="20" viewBox="0 0 27 20" fill="none" xmlns="http://www.w3.org/2000/svg">
<path d="M9.22007 3.07666C6.79254 3.07666 4.81641 5.07072 4.81641 7.521C4.81641 9.97128 6.79222 11.9653 9.22007 11.9653C11.6479 11.9653 13.6237 9.97128 13.6237 7.521C13.6237 5.07072 11.6479 3.07666 9.22007 3.07666ZM9.22007 10.8255C7.41353 10.8255 5.94553 9.3439 5.94553 7.52067C5.94553 5.69745 7.41353 4.21589 9.22007 4.21589C11.0266 4.21589 12.4946 5.69745 12.4946 7.52067C12.4946 9.3439 11.0266 10.8255 9.22007 10.8255Z" fill="black"/>
<path d="M18.0499 17.0677C16.3382 14.9481 13.4183 12.4207 9.22032 12.4207C5.02237 12.4207 2.1025 14.9481 0.390749 17.0677C-0.0361401 17.5965 -0.119649 18.3121 0.171822 18.9297C0.46555 19.5541 1.073 19.9417 1.75493 19.9417H16.6864C17.3683 19.9417 17.9757 19.5541 18.2695 18.9297C18.5606 18.3121 18.4771 17.5965 18.0505 17.0677H18.0499ZM17.2503 18.4419C17.1442 18.6677 16.9317 18.8021 16.6857 18.8021H1.75428C1.50827 18.8021 1.29579 18.6677 1.18972 18.4419C1.0859 18.2187 1.11524 17.9746 1.26645 17.7878C2.82247 15.8598 5.46441 13.5602 9.22 13.5602C12.9756 13.5602 15.6175 15.8598 17.1735 17.7878C17.3248 17.9749 17.3541 18.2187 17.2503 18.4419Z" fill="black"/>
<path d="M19.4833 0C17.5142 0 15.9131 1.61595 15.9131 3.60317C15.9131 5.5904 17.5142 7.20635 19.4833 7.20635C21.4523 7.20635 23.0535 5.5904 23.0535 3.60317C23.0535 1.61595 21.4523 0 19.4833 0ZM19.4833 6.28351C18.0201 6.28351 16.8275 5.08017 16.8275 3.6035C16.8275 2.12683 18.0198 0.923165 19.4833 0.923165C20.9468 0.923165 22.1391 2.1265 22.1391 3.6035C22.1391 5.0805 20.9468 6.28351 19.4833 6.28351Z" fill="black"/>
<path d="M26.6411 11.3451C25.2547 9.62441 22.8881 7.57568 19.4827 7.57568C18.0105 7.57568 16.7321 7.95836 15.6436 8.53269V9.59708C16.7072 8.94986 17.9853 8.5008 19.4827 8.5008C22.5267 8.5008 24.6698 10.365 25.9321 11.9263C26.054 12.0789 26.0765 12.2774 25.993 12.4574C25.9073 12.6419 25.7357 12.7515 25.5345 12.7515H15.6436V13.6744H25.5345C26.0901 13.6744 26.5824 13.36 26.8194 12.854C27.0564 12.3526 26.9864 11.7737 26.6411 11.3451Z" fill="black"/>
</svg>
