<svg width="27" height="21" viewBox="0 0 27 21" fill="none" xmlns="http://www.w3.org/2000/svg">
<path d="M25.6469 7.74735L26.7561 3.90956C26.828 3.66095 26.7248 3.39445 26.5046 3.26136L23.8249 1.63858C23.8007 1.62394 23.775 1.61352 23.7498 1.60279C22.6316 0.599898 21.4184 0.323632 20.7867 0.960118C20.1087 1.64476 20.4749 3.00787 21.6576 4.20177C22.4421 4.99315 23.3 5.42235 23.9868 5.42235C24.336 5.42235 24.641 5.31139 24.8696 5.08068C25.0566 4.89195 25.3168 4.48715 25.161 3.7768L25.5502 4.01239L24.5143 7.59734H2.59365C1.52256 7.59734 0.651367 8.47658 0.651367 9.55756V9.60735L1.98201 17.2673C2.00942 18.2881 2.81451 19.1146 3.8195 19.1686C3.81338 19.2139 3.80951 19.2594 3.80951 19.3059C3.80951 20.0017 4.52464 20.5467 5.43775 20.5467C6.35085 20.5467 7.06599 20.0017 7.06599 19.3059C7.06599 19.2614 7.06276 19.2171 7.05696 19.1738H20.5726C20.5668 19.2171 20.5636 19.2614 20.5636 19.3059C20.5636 20.0017 21.2787 20.5467 22.1918 20.5467C23.105 20.5467 23.8201 20.0017 23.8201 19.3059C23.8201 19.2555 23.8153 19.2064 23.8082 19.1579C24.7512 19.0424 25.4886 18.2435 25.5151 17.2673L26.837 9.65616L26.8454 9.55789C26.8454 8.74275 26.3495 8.04281 25.6466 7.74735H25.6469ZM24.0696 4.27336C23.9158 4.33649 23.2246 4.17151 22.4559 3.39608C21.6721 2.60502 21.517 1.89532 21.578 1.77134C21.5973 1.76093 21.6279 1.75475 21.6689 1.75475C21.9152 1.75475 22.5281 1.96659 23.1997 2.64472C23.9684 3.42048 24.1325 4.11847 24.069 4.27336H24.0696ZM5.43775 19.4072C5.23107 19.4072 5.08276 19.3535 4.99957 19.3059C5.08276 19.2584 5.2314 19.2048 5.43775 19.2048C5.6441 19.2048 5.79274 19.2584 5.87592 19.3059C5.79241 19.3535 5.6441 19.4072 5.43775 19.4072ZM22.1925 19.4072C21.9858 19.4072 21.8375 19.3535 21.7543 19.3059C21.8375 19.2584 21.9861 19.2048 22.1925 19.2048C22.3988 19.2048 22.5475 19.2584 22.6307 19.3059C22.5472 19.3535 22.3988 19.4072 22.1925 19.4072ZM24.3956 17.115L24.3872 17.2133C24.3872 17.6659 24.0226 18.034 23.5741 18.034H3.92332C3.47483 18.034 3.11017 17.6659 3.11017 17.2133V17.1635L1.78146 9.51428C1.80371 9.0815 2.15934 8.73657 2.59365 8.73657H24.9034C25.3374 8.73657 25.6934 9.0815 25.7156 9.51428L24.3956 17.115Z" fill="black"/>
<path d="M22.793 2.59009C22.3571 2.59009 22.3564 3.27376 22.793 3.27376C23.2296 3.27376 23.2296 2.59009 22.793 2.59009Z" fill="black"/>
</svg>
