<svg width="27" height="27" viewBox="0 0 27 27" fill="none" xmlns="http://www.w3.org/2000/svg">
<path d="M12.4416 0.0410728C22.2144 -0.71301 29.613 9.05038 26.1206 18.3008C22.6282 27.5511 9.71663 30.0677 3.08402 22.1153C-3.88609 13.7586 1.69734 0.870123 12.4416 0.0410728ZM12.7644 6.24425C12.6206 5.19618 12.7644 3.55131 12.7644 2.42239C12.7644 2.22541 12.9874 1.92114 12.5414 1.89615C11.2501 1.82559 9.75185 4.62878 9.2456 5.65774C9.26614 5.98995 12.424 6.64849 12.9111 6.46327C12.986 6.41036 12.7703 6.28541 12.7644 6.24425ZM14.2318 6.46474C14.7087 6.62497 17.7315 5.97231 17.7506 5.65774C16.9435 4.25835 16.0895 2.04755 14.2318 1.90791V6.46474ZM9.3894 2.64435C9.12674 2.4415 6.79799 3.84971 6.45756 4.18633L7.98071 5.13297L9.3894 2.64435ZM17.6068 2.64435L19.0155 5.13297L20.5386 4.18633C20.1982 3.84971 17.8709 2.4415 17.6068 2.64435ZM1.75897 12.7855H6.60136C6.50011 10.6144 7.05038 8.51238 7.49207 6.41477L5.37609 5.15649C3.19408 7.10123 2.11261 9.93529 1.76044 12.784L1.75897 12.7855ZM25.0905 12.7855C25.0846 9.95587 23.6818 7.05713 21.6216 5.15649L19.4014 6.53236C20.1234 8.51679 20.4139 10.6688 20.3948 12.7855H25.0905ZM12.9111 12.7855L12.8466 7.93175L8.88609 7.04831C8.51631 7.04096 7.73272 12.202 7.92054 12.7855H12.9097H12.9111ZM14.2318 7.7877V12.7855H19.0742C19.0845 10.8437 18.7528 8.90045 18.1923 7.05272C16.9024 7.40404 15.595 7.87442 14.2318 7.7877ZM7.45978 20.7027C7.34679 19.5017 6.93739 18.3199 6.76864 17.1013C6.63658 16.1532 6.6219 15.1992 6.53239 14.2481L6.38712 14.1467C4.97989 14.3143 3.37897 14.3628 1.98201 14.1114L1.8162 14.4098C2.13315 17.1733 3.23957 20.1426 5.48027 21.8874L7.45978 20.7012V20.7027ZM12.7644 18.8858C12.7541 17.4159 12.7644 15.9459 12.7644 14.476C12.7644 14.4451 12.9845 14.3099 12.9111 14.2569L8.14212 14.1585C7.68723 14.3069 8.03207 16.3663 8.08929 16.8058C8.23016 17.8833 8.48989 18.952 8.80391 19.9883C10.0673 19.6355 11.3425 19.2048 12.6734 19.2357L12.8774 19.0313C12.8818 18.9711 12.7644 18.9211 12.7644 18.8843V18.8858ZM14.2318 14.329V19.2533C15.5935 19.1666 16.901 19.6369 18.1923 19.9883C18.5107 18.9505 18.7616 17.8833 18.904 16.8029C18.9656 16.331 19.3339 14.3143 18.8555 14.1585L14.4475 14.1438L14.2333 14.329H14.2318ZM25.2372 14.2555H20.3948C20.4961 16.4266 19.9458 18.5301 19.5041 20.6262L21.6201 21.8845C23.8007 19.9383 24.8836 17.1057 25.2358 14.2555H25.2372ZM12.9111 20.5777C12.4328 20.3925 9.26468 21.051 9.2456 21.3832C10.0688 22.8164 10.9786 25.1448 12.9111 25.1316C12.6485 23.6984 12.6969 22.0241 12.9111 20.5777ZM14.2318 25.1331C16.0719 25.0493 16.9509 22.7797 17.7506 21.3832C17.7301 21.051 14.5722 20.3925 14.0851 20.5777C14.0117 20.6306 14.2318 20.7659 14.2318 20.7967V25.1331ZM9.3894 24.3966L7.98071 21.908L6.45756 22.8547C6.79799 23.1913 9.12527 24.5995 9.3894 24.3966ZM17.6068 24.3966C17.8709 24.601 20.1982 23.1913 20.5386 22.8547L19.0155 21.908L17.6068 24.3966Z" fill="#EBE5DA"/>
</svg>
