<svg width="24" height="21" viewBox="0 0 24 21" fill="none" xmlns="http://www.w3.org/2000/svg">
<path d="M21.405 10.065V4.03344C21.405 2.15066 19.8851 0.618896 18.0169 0.618896H5.39971C3.53153 0.618896 2.01163 2.15066 2.01163 4.03344V10.065C1.03317 10.6645 0.375977 11.7457 0.375977 12.9816V19.8228C0.375977 19.9462 0.475053 20.0461 0.597486 20.0461H1.32307C1.44551 20.0461 1.54458 19.9462 1.54458 19.8228V17.3379H21.8724V19.8228C21.8724 19.9462 21.9715 20.0461 22.0939 20.0461H22.8195C22.9419 20.0461 23.041 19.9462 23.041 19.8228V12.9816C23.041 11.7457 22.3838 10.6645 21.4054 10.065H21.405ZM20.1196 8.83349H12.2923V6.45784C12.2923 6.10953 12.5732 5.82677 12.9185 5.82677H19.4931C19.8384 5.82677 20.1193 6.10986 20.1193 6.45784V8.83349H20.1196ZM11.1243 8.83349H3.297V6.45784C3.297 6.10953 3.5779 5.82677 3.92318 5.82677H10.4978C10.8431 5.82677 11.124 6.10986 11.124 6.45784V8.83349H11.1243ZM5.39971 1.7963H18.0169C19.2409 1.7963 20.2367 2.79988 20.2367 4.03344V4.81378C20.0099 4.70922 19.7587 4.64937 19.4935 4.64937H12.9188C12.4521 4.64937 12.0277 4.83126 11.7085 5.12679C11.3889 4.83126 10.9649 4.64937 10.4982 4.64937H3.92351C3.6583 4.64937 3.40709 4.70922 3.18024 4.81378V4.03344C3.18024 2.79988 4.17605 1.7963 5.40004 1.7963H5.39971ZM21.8721 16.1605H1.54426V12.9816C1.54426 11.7481 2.54006 10.7445 3.76405 10.7445H19.6523C20.8762 10.7445 21.8721 11.7481 21.8721 12.9816V16.1605Z" fill="black"/>
</svg>
